<svg width="165" height="30" fill="none" xmlns="http://www.w3.org/2000/svg"><path d="M0 .322h4.035v29.324H0V.322ZM31.163 3.061c2.11 1.805 3.135 4.318 3.135 7.508 0 3.19-1.056 5.672-3.135 7.508-2.11 1.805-4.966 2.74-8.629 2.74h-6.983v8.893h-4.035V.322h11.018c3.632 0 6.518.935 8.629 2.74Zm-2.918 12.374c1.335-1.128 2.018-2.771 2.018-4.866 0-2.126-.683-3.738-2.018-4.865-1.334-1.128-3.29-1.708-5.866-1.708h-6.828v13.147h6.86c2.544 0 4.5-.58 5.834-1.708ZM63.472.322 51.087 29.646h-4.004L34.668.322h4.345l10.18 24.103L59.438.322h4.035ZM86.567 26.037v3.64H66.051V.323h19.926v3.642H70.086v9.022h14.153v3.577H70.086v9.474h16.481ZM110.992 29.678l-6.083-9.023c-.745.065-1.335.097-1.769.097h-6.984v8.926h-4.035V.322h11.019c3.662 0 6.549.903 8.628 2.74 2.111 1.804 3.135 4.317 3.135 7.507 0 2.256-.527 4.19-1.614 5.768-1.086 1.58-2.607 2.74-4.593 3.48l6.704 9.86h-4.408Zm-2.141-14.21c1.334-1.16 2.017-2.772 2.017-4.899 0-2.126-.683-3.738-2.017-4.865-1.335-1.128-3.29-1.708-5.866-1.708h-6.86v13.211h6.86c2.576-.032 4.531-.612 5.866-1.74ZM122.507 28.969c-1.986-.677-3.538-1.58-4.655-2.675l1.489-3.254c1.087.999 2.452 1.837 4.128 2.449 1.677.644 3.415.934 5.184.934 2.328 0 4.097-.419 5.245-1.224 1.149-.838 1.739-1.934 1.739-3.287 0-.999-.311-1.837-.963-2.45-.62-.643-1.427-1.095-2.328-1.45-.931-.321-2.234-.708-3.941-1.127-2.111-.516-3.849-1.063-5.153-1.579-1.303-.515-2.421-1.353-3.352-2.449-.931-1.095-1.397-2.578-1.397-4.447 0-1.579.404-2.964 1.18-4.221.807-1.257 1.986-2.256 3.6-3.029C124.959.387 126.946 0 129.367 0c1.676 0 3.321.226 4.935.677 1.614.45 3.011 1.095 4.159 1.933l-1.335 3.351c-1.179-.773-2.452-1.385-3.786-1.772a13.19 13.19 0 0 0-3.942-.612c-2.297 0-4.004.419-5.153 1.289-1.148.87-1.707 1.998-1.707 3.351 0 .999.311 1.837.963 2.449.651.644 1.458 1.128 2.389 1.482.963.355 2.266.71 3.88 1.096 2.111.515 3.849 1.063 5.122 1.579 1.303.515 2.39 1.353 3.321 2.416.931 1.096 1.396 2.546 1.396 4.415a7.75 7.75 0 0 1-1.21 4.221c-.807 1.257-2.018 2.288-3.663 3.03-1.645.74-3.662 1.095-6.052 1.095-2.142 0-4.19-.355-6.177-1.031ZM165.001 26.037v3.64h-20.517V.323h19.927v3.642h-15.892v9.022h14.154v3.577h-14.154v9.474h16.482Z" fill="#fff"/></svg>