<svg width="22" height="22" fill="none" xmlns="http://www.w3.org/2000/svg"><path d="M11 1.982c2.937 0 3.285.01 4.445.064 1.072.05 1.655.228 2.042.38.478.175.91.456 1.265.822.366.355.647.787.823 1.265.151.387.33.97.379 2.042.053 1.16.064 1.508.064 4.445 0 2.937-.01 3.285-.064 4.445-.05 1.072-.228 1.655-.38 2.042a3.638 3.638 0 0 1-2.087 2.088c-.387.151-.97.33-2.042.379-1.16.053-1.508.064-4.445.064-2.937 0-3.285-.01-4.445-.064-1.072-.05-1.655-.228-2.042-.38a3.4 3.4 0 0 1-1.265-.822 3.402 3.402 0 0 1-.823-1.265c-.151-.387-.33-.97-.379-2.042-.053-1.16-.064-1.508-.064-4.445 0-2.937.01-3.285.064-4.445.05-1.072.228-1.657.38-2.042.175-.478.456-.91.822-1.265a3.401 3.401 0 0 1 1.265-.823c.385-.151.97-.33 2.042-.379 1.16-.053 1.508-.064 4.445-.064ZM11 0C8.013 0 7.638.013 6.465.066c-1.173.053-1.97.24-2.67.512a5.404 5.404 0 0 0-1.95 1.268A5.4 5.4 0 0 0 .578 3.795c-.271.7-.458 1.499-.51 2.67C.012 7.636 0 8.013 0 11s.013 3.362.066 4.535c.053 1.173.24 1.97.512 2.67.276.735.709 1.4 1.268 1.95.55.558 1.214.991 1.948 1.267.7.272 1.5.459 2.671.512C7.636 21.987 8.012 22 11 22c2.988 0 3.362-.013 4.535-.066 1.173-.053 1.97-.24 2.67-.512a5.621 5.621 0 0 0 3.218-3.216c.271-.7.458-1.5.51-2.671.054-1.171.067-1.547.067-4.535 0-2.988-.013-3.362-.066-4.535-.053-1.173-.24-1.97-.512-2.67a5.4 5.4 0 0 0-1.268-1.95A5.4 5.4 0 0 0 18.205.578c-.7-.271-1.499-.458-2.67-.51C14.364.012 13.987 0 11 0Zm0 5.351a5.649 5.649 0 1 0 0 11.298A5.649 5.649 0 0 0 11 5.35Zm0 9.316a3.667 3.667 0 1 1 0-7.334 3.667 3.667 0 0 1 0 7.334Zm7.192-9.54a1.32 1.32 0 1 1-2.64 0 1.32 1.32 0 0 1 2.64 0Z" fill="#fff"/></svg>