<svg width="164" height="38" fill="none" xmlns="http://www.w3.org/2000/svg"><g clip-path="url(#a)"><path d="m14.91 24.02 6.074 13.005 8.71-33.805c-.002 0-14.597 20.506-14.784 20.8Z" fill="#040000"/><path d="m.537 22.665 14.374 1.354c.187-.296 14.784-20.8 14.784-20.8L.537 22.666Z" fill="#0047CC"/><path d="m31.81 5.616-1.028 3.887c3.742 5.114 3.968 12.235.067 17.644-1.587 2.226-3.695 3.873-6.032 4.935L23.783 36c3.804-1.112 7.311-3.46 9.752-6.906 5.298-7.326 4.373-17.217-1.726-23.478Z" fill="#040000"/><path d="M6.133 9.59c4.027-5.588 11.24-7.624 17.465-5.412l3.304-2.176C18.898-2.069 8.859.192 3.446 7.643.841 11.271-.234 15.533.042 19.685l3.304-2.175a15.07 15.07 0 0 1 2.787-7.92Z" fill="#0047CC"/><path d="M9.675 30.652a14.86 14.86 0 0 1-4.471-5.027l-3.81-.382a18.586 18.586 0 0 0 6.373 8.093 18.658 18.658 0 0 0 10.068 3.418l-1.584-3.446a15.02 15.02 0 0 1-6.576-2.656ZM46.914 8.487h2.865v20.048h-2.865V8.487Zm22.111 1.863c1.489 1.24 2.234 2.949 2.234 5.127s-.745 3.884-2.234 5.127c-1.488 1.24-3.532 1.863-6.13 1.863h-4.954v6.07h-2.865V8.488h7.82c2.597 0 4.64.623 6.13 1.863Zm-2.06 8.464c.954-.774 1.432-1.885 1.432-3.337 0-1.452-.478-2.564-1.433-3.337-.955-.774-2.34-1.16-4.152-1.16h-4.87v8.993h4.87c1.812 0 3.197-.386 4.152-1.159ZM91.968 8.487l-8.794 20.048h-2.835l-8.82-20.048h3.094l7.216 16.468 7.275-16.468h2.865Zm16.38 17.557v2.491h-14.55V8.487h14.148v2.49H96.661v6.159h10.054v2.435H96.661v6.473h11.687Zm17.33 2.494-4.326-6.158c-.533.04-.955.059-1.259.059h-4.954v6.102h-2.866V8.487h7.82c2.597 0 4.641.62 6.13 1.863 1.488 1.24 2.234 2.949 2.234 5.127 0 1.547-.383 2.865-1.145 3.951-.765 1.09-1.852 1.883-3.265 2.377l4.756 6.73h-3.125v.003Zm-1.516-9.71c.955-.782 1.432-1.9 1.432-3.351 0-1.452-.477-2.564-1.432-3.337-.955-.774-2.341-1.16-4.153-1.16h-4.87v9.024h4.87c1.812-.003 3.198-.394 4.153-1.176Zm9.692 9.235c-1.405-.466-2.505-1.075-3.309-1.818l1.058-2.234c.763.687 1.743 1.246 2.935 1.676 1.193.43 2.422.645 3.681.645 1.662 0 2.902-.282 3.723-.847.821-.564 1.231-1.312 1.231-2.247 0-.688-.223-1.246-.673-1.676-.449-.43-1.002-.76-1.661-.989-.659-.229-1.589-.486-2.793-.773-1.508-.363-2.726-.726-3.653-1.09a6.032 6.032 0 0 1-2.376-1.675c-.659-.754-.989-1.77-.989-3.05 0-1.07.282-2.032.846-2.893.564-.86 1.419-1.547 2.564-2.06 1.145-.517 2.566-.774 4.267-.774 1.184 0 2.349.153 3.494.458 1.145.304 2.128.745 2.949 1.318l-.944 2.29a10.406 10.406 0 0 0-2.692-1.218 10.069 10.069 0 0 0-2.807-.416c-1.623 0-2.84.296-3.653.888-.812.592-1.217 1.357-1.217 2.293 0 .687.229 1.245.687 1.676.458.43 1.025.765 1.703 1.002.679.24 1.6.492 2.765.76 1.508.363 2.72.726 3.636 1.089a6.118 6.118 0 0 1 2.362 1.662c.659.745.989 1.748.989 3.007 0 1.05-.288 2.01-.86 2.88-.573.868-1.441 1.555-2.606 2.06-1.164.506-2.597.76-4.295.76a13.69 13.69 0 0 1-4.362-.704Zm30.147-2.019v2.491h-14.55V8.487h14.15v2.49h-11.285v6.159h10.054v2.435h-10.054v6.473h11.685Z" fill="#040000"/></g><defs><clipPath id="a"><path fill="#fff" d="M0 0h164v37.025H0z"/></clipPath></defs></svg>