<svg width="26" height="18" fill="none" xmlns="http://www.w3.org/2000/svg"><g clip-path="url(#a)"><path d="m10.315 12.32 7.025-3.583-7.025-3.608v7.19Z" fill="#000"/><path opacity=".12" fill-rule="evenodd" clip-rule="evenodd" d="m10.315 5.129 6.16 4.05.865-.441-7.025-3.61Z" fill="#000"/><path d="M25.739 3.882s-.254-1.763-1.034-2.54C23.718.322 22.608.318 22.1.258c-3.638-.26-9.096-.26-9.096-.26h-.011s-5.458 0-9.096.26c-.509.06-1.616.065-2.605 1.084-.78.778-1.034 2.54-1.034 2.54s-.26 2.071-.26 4.142v1.942c0 2.07.26 4.142.26 4.142s.254 1.763 1.033 2.54c.988 1.02 2.288.987 2.867 1.094 2.08.194 8.84.257 8.84.257s5.463-.008 9.102-.267c.508-.06 1.616-.065 2.605-1.084.78-.778 1.034-2.54 1.034-2.54s.259-2.071.259-4.142V8.024c0-2.07-.26-4.142-.26-4.142Zm-15.425 8.436v-7.19l7.024 3.608-7.024 3.582Z" fill="#fff"/></g><defs><clipPath id="a"><path fill="#fff" d="M0 0h26v18H0z"/></clipPath></defs></svg>