<svg width="165" height="30" viewBox="0 0 165 30" fill="none" xmlns="http://www.w3.org/2000/svg">
<path d="M0 0.322266H4.03499V29.6456H0V0.322266Z" fill="#1E1E1E"/>
<path d="M31.1629 3.06126C33.2735 4.86577 34.2978 7.37919 34.2978 10.5693C34.2978 13.7594 33.2425 16.2406 31.1629 18.0774C29.0523 19.8819 26.1968 20.8164 22.5342 20.8164H15.5506V29.71H11.5156V0.322266H22.5342C26.1657 0.322266 29.0523 1.25674 31.1629 3.06126ZM28.2453 15.435C29.58 14.3072 30.2628 12.6638 30.2628 10.5693C30.2628 8.44257 29.58 6.8314 28.2453 5.70358C26.9107 4.57576 24.9552 3.99574 22.3791 3.99574H15.5506V17.1429H22.4101C24.9552 17.1429 26.9107 16.5629 28.2453 15.435Z" fill="#1E1E1E"/>
<path d="M63.4716 0.322266L51.0873 29.6456H47.0833L34.668 0.322266H39.0133L49.1939 24.4254L59.4366 0.322266H63.4716Z" fill="#1E1E1E"/>
<path d="M86.5671 26.0366V29.6778H66.0508V0.322266H85.9774V3.96351H70.0858V12.9861H84.2393V16.5629H70.0858V26.0366H86.5671Z" fill="#1E1E1E"/>
<path d="M110.992 29.6778L104.909 20.6552C104.164 20.7197 103.574 20.7519 103.14 20.7519H96.1561V29.6778H92.1211V0.322266H103.14C106.802 0.322266 109.689 1.22452 111.768 3.06126C113.879 4.86577 114.903 7.37919 114.903 10.5693C114.903 12.825 114.376 14.7584 113.289 16.3373C112.203 17.9163 110.682 19.0763 108.696 19.8174L115.4 29.6778H110.992ZM108.851 15.4673C110.185 14.3072 110.868 12.6961 110.868 10.5693C110.868 8.44257 110.185 6.8314 108.851 5.70358C107.516 4.57576 105.561 3.99573 102.985 3.99573H96.1251V17.2073H102.985C105.561 17.1751 107.516 16.5951 108.851 15.4673Z" fill="#1E1E1E"/>
<path d="M122.507 28.9689C120.521 28.2922 118.969 27.3899 117.852 26.2943L119.341 23.0397C120.428 24.0387 121.793 24.8765 123.469 25.4887C125.146 26.1332 126.884 26.4232 128.653 26.4232C130.981 26.4232 132.75 26.0043 133.898 25.1987C135.047 24.3609 135.637 23.2653 135.637 21.9119C135.637 20.913 135.326 20.0752 134.674 19.4629C134.054 18.8185 133.247 18.3673 132.346 18.0129C131.415 17.6907 130.112 17.304 128.405 16.8851C126.294 16.3695 124.556 15.8217 123.252 15.3061C121.949 14.7905 120.831 13.9527 119.9 12.8571C118.969 11.7615 118.503 10.2793 118.503 8.41031C118.503 6.83136 118.907 5.44576 119.683 4.18904C120.49 2.93233 121.669 1.9334 123.283 1.16004C124.959 0.386681 126.946 0 129.367 0C131.043 0 132.688 0.225564 134.302 0.676692C135.916 1.12782 137.313 1.77229 138.461 2.6101L137.126 5.96133C135.947 5.18797 134.674 4.57573 133.34 4.18904C132.005 3.77014 130.67 3.5768 129.398 3.5768C127.101 3.5768 125.394 3.9957 124.245 4.86574C123.097 5.73577 122.538 6.86359 122.538 8.21697C122.538 9.2159 122.849 10.0537 123.501 10.6659C124.152 11.3104 124.959 11.7938 125.89 12.1482C126.853 12.5027 128.156 12.8571 129.77 13.2438C131.881 13.7594 133.619 14.3072 134.892 14.8228C136.195 15.3383 137.282 16.1762 138.213 17.2395C139.144 18.3351 139.609 19.7852 139.609 21.6541C139.609 23.2009 139.206 24.5865 138.399 25.8754C137.592 27.1321 136.381 28.1633 134.736 28.9044C133.091 29.6455 131.074 30 128.684 30C126.542 30 124.494 29.6455 122.507 28.9689Z" fill="#1E1E1E"/>
<path d="M165.001 26.0366V29.6778H144.484V0.322266H164.411V3.96351H148.519V12.9861H162.673V16.5629H148.519V26.0366H165.001Z" fill="#1E1E1E"/>
</svg>
