<svg width="70" height="71" fill="none" xmlns="http://www.w3.org/2000/svg"><path d="M15.17 70.194c3.861 0 7.827-1.524 10.75-4.446l15.424-15.55c2.692-2.692 4.446-6.199 4.675-10.06.125-2.797-.459-5.49-1.628-7.952-1.043-2.108-3.966-2.568-5.614-.814-1.044 1.043-1.294 2.796-.585 4.216.71 1.294.94 2.692.814 4.216-.125 2.108-1.044 3.966-2.567 5.385l-15.425 15.32c-3.047 3.027-8.077 3.36-11.333.564-3.632-3.152-3.737-8.537-.355-11.918L19.72 38.76c1.399-1.398 1.524-3.631.23-5.03a3.558 3.558 0 0 0-5.135-.125L4.65 43.895c-5.97 5.97-6.303 15.654-.354 21.623 2.922 3.152 6.887 4.676 10.874 4.676Z" fill="#fff"/><path d="M31.992 34.544c-.71-1.294-.939-2.692-.814-4.216.126-2.108 1.044-3.966 2.568-5.385l15.32-15.425c3.047-3.047 8.057-3.381 11.334-.584 3.631 3.152 3.736 8.537.354 11.918L50.36 31.246c-1.398 1.399-1.524 3.632-.23 5.03a3.558 3.558 0 0 0 5.135.126L65.43 26.237c5.948-5.949 6.199-16.01.104-21.979-5.949-5.719-15.425-5.719-21.269.25L28.715 19.83c-2.692 2.693-4.445 6.2-4.675 10.06-.125 2.797.46 5.49 1.628 7.953 1.044 2.108 3.966 2.567 5.615.814 1.19-1.085 1.42-2.713.71-4.112Z" fill="#fff"/></svg>