<svg width="70" height="70" fill="none" xmlns="http://www.w3.org/2000/svg"><path d="M65.414 52.266A34.706 34.706 0 0 0 70 35.013c0-6.053-1.578-12-4.586-17.266v-.16A35.044 35.044 0 0 0 47.02 2.125a35.053 35.053 0 0 0-24.038 0A35.08 35.08 0 0 0 4.586 17.573v.16A34.793 34.793 0 0 0 0 35c0 6.054 1.578 12 4.586 17.253v.16A35.103 35.103 0 0 0 22.98 67.875a35.052 35.052 0 0 0 24.038 0 35.053 35.053 0 0 0 18.395-15.462v-.147ZM35 65.403c-3.275 0-6.765-4.397-9.078-11.694h18.155C41.766 61.006 38.276 65.403 35 65.403Zm-10.294-16.37a66.21 66.21 0 0 1-1.404-11.694h23.396a67.407 67.407 0 0 1-1.35 11.693H24.706Zm-20-11.694h13.917a74.592 74.592 0 0 0 1.217 11.693H8.048A30.34 30.34 0 0 1 4.706 37.34Zm3.342-16.371h11.845a74.645 74.645 0 0 0-1.257 11.693H4.6a30.189 30.189 0 0 1 3.45-11.693ZM35 4.598c3.275 0 6.765 4.396 9.078 11.693H25.922C28.235 8.994 31.726 4.597 35 4.597Zm10.294 16.37a66.21 66.21 0 0 1 1.404 11.693H23.302a67.407 67.407 0 0 1 1.35-11.693h20.642Zm20.12 11.693H51.377a74.592 74.592 0 0 0-1.217-11.693h11.845a30.432 30.432 0 0 1 3.41 11.693ZM51.377 37.34h14.037a30.574 30.574 0 0 1-3.342 11.693H50.12a74.633 74.633 0 0 0 1.257-11.693Zm7.607-21.048h-9.947A35.968 35.968 0 0 0 44.6 6.147a30.957 30.957 0 0 1 14.345 10.144h.04ZM25.454 6.147a36.277 36.277 0 0 0-4.491 10.144h-9.894A30.813 30.813 0 0 1 25.454 6.147ZM11.07 53.71h9.894a35.627 35.627 0 0 0 4.451 10.144A30.7 30.7 0 0 1 11.07 53.709Zm33.477 10.157a36.277 36.277 0 0 0 4.491-10.143h9.947a30.964 30.964 0 0 1-14.439 10.143Z" fill="#fff"/></svg>