<svg width="85" height="90" fill="none" xmlns="http://www.w3.org/2000/svg"><path d="M42.332 14.428a2.2 2.2 0 0 0 2.2-2.2V2.2a2.2 2.2 0 0 0-4.4 0v10.03a2.2 2.2 0 0 0 2.2 2.2ZM65.995 7.126l-7.09 7.091a2.198 2.198 0 0 0 0 3.114c.422.423.985.651 1.548.651a2.13 2.13 0 0 0 1.548-.65l7.091-7.091a2.198 2.198 0 0 0 0-3.115 2.177 2.177 0 0 0-3.097 0ZM24.192 17.965a2.13 2.13 0 0 0 1.549-.651 2.198 2.198 0 0 0 0-3.115l-7.074-7.073a2.198 2.198 0 0 0-3.114 0 2.198 2.198 0 0 0 0 3.115l7.09 7.09c.423.423.986.634 1.55.634ZM12.454 29.824l-9.66-2.71c-1.16-.334-2.375.352-2.71 1.514-.334 1.161.353 2.375 1.514 2.71l9.677 2.727c.194.052.405.088.599.088a2.18 2.18 0 0 0 2.111-1.602 2.206 2.206 0 0 0-1.53-2.727ZM84.56 28.645c-.335-1.161-1.549-1.847-2.71-1.513l-9.66 2.71a2.224 2.224 0 0 0-1.53 2.71 2.212 2.212 0 0 0 2.11 1.6c.194 0 .405-.035.599-.087l9.66-2.71a2.21 2.21 0 0 0 1.53-2.71ZM59.363 25.407c-4.628-4.187-10.839-6.598-17.032-6.598-6.194 0-12.405 2.41-17.033 6.598-4.944 4.47-7.653 10.522-7.653 17.033 0 8.657 3.325 14.093 6.44 18.51l.791 1.108c2.57 3.59 4.593 6.423 4.593 10.522v10.91c0 3.589 2.92 6.51 6.51 6.51H48.7c3.59 0 6.51-2.921 6.51-6.51V72.58c0-4.1 2.024-6.95 4.593-10.54.264-.351.51-.72.774-1.09 3.114-4.417 6.44-9.854 6.44-18.51 0-6.51-2.727-12.563-7.654-17.033Zm1.9 17.033c0 7.003-2.428 11.032-5.366 15.184-.229.335-.475.651-.704.986l-.053.07c-.193.264-.387.528-.563.792-2.146 2.974-4.188 5.789-4.874 9.888H34.958c-.686-4.1-2.727-6.914-4.874-9.888-.193-.264-.387-.528-.563-.792-.246-.352-.51-.704-.756-1.056-2.939-4.17-5.367-8.181-5.367-15.184 0-11.05 9.836-17.895 18.95-17.895h.159c9.009.088 18.756 6.95 18.756 17.895Zm-11.806 31.6v3.115H35.205v-3.114h14.252Zm-14.252 7.444h14.252v1.988c0 .493-.387.756-.757.756H35.98c-.37 0-.757-.263-.757-.756v-1.988h-.017Z" fill="#fff"/></svg>