<svg width="322" height="57" fill="none" xmlns="http://www.w3.org/2000/svg"><path d="M0 .612h7.874v55.715H0V.612ZM60.815 5.816c4.118 3.429 6.117 8.204 6.117 14.266 0 6.06-2.059 10.775-6.117 14.265-4.12 3.429-9.692 5.204-16.84 5.204H30.348V56.45h-7.874V.612h21.503c7.087 0 12.72 1.776 16.839 5.204Zm-5.694 23.51c2.604-2.142 3.937-5.265 3.937-9.244 0-4.041-1.333-7.102-3.937-9.245-2.605-2.143-6.42-3.245-11.448-3.245H30.347v24.98h13.386c4.967 0 8.783-1.103 11.388-3.245ZM123.871.612 99.703 56.327h-7.814L67.66.612h8.48l19.868 45.796L115.996.612h7.875ZM168.936 49.47v6.918h-40.038V.612h38.888v6.919h-31.013v17.142h27.621v6.797h-27.621v18h32.163ZM216.605 56.388l-11.872-17.143c-1.454.122-2.605.184-3.453.184h-13.628v16.959h-7.875V.612h21.503c7.148 0 12.781 1.715 16.839 5.204 4.119 3.429 6.118 8.204 6.118 14.266 0 4.285-1.03 7.959-3.15 10.959s-5.088 5.204-8.964 6.612l13.083 18.735h-8.601Zm-4.179-27c2.604-2.204 3.937-5.266 3.937-9.306 0-4.041-1.333-7.102-3.937-9.245-2.605-2.143-6.421-3.245-11.448-3.245h-13.387v25.102h13.387c5.027-.061 8.843-1.163 11.448-3.306ZM239.078 55.04c-3.877-1.285-6.905-3-9.086-5.08l2.908-6.184c2.12 1.897 4.785 3.49 8.056 4.653 3.271 1.224 6.663 1.775 10.115 1.775 4.543 0 7.996-.796 10.237-2.327 2.241-1.591 3.392-3.673 3.392-6.244 0-1.898-.606-3.49-1.878-4.653-1.211-1.225-2.786-2.082-4.543-2.755-1.817-.613-4.361-1.347-7.692-2.143-4.119-.98-7.511-2.02-10.055-3-2.544-.98-4.725-2.572-6.542-4.653-1.817-2.082-2.726-4.898-2.726-8.45 0-3 .788-5.632 2.302-8.02 1.575-2.388 3.877-4.286 7.026-5.755C243.863.734 247.74 0 252.464 0c3.271 0 6.482.429 9.631 1.286 3.15.857 5.876 2.081 8.117 3.673l-2.605 6.367c-2.301-1.469-4.785-2.632-7.389-3.367a26.38 26.38 0 0 0-7.693-1.163c-4.482 0-7.814.796-10.055 2.449-2.241 1.653-3.331 3.796-3.331 6.367 0 1.898.605 3.49 1.877 4.653 1.272 1.225 2.847 2.143 4.664 2.817 1.878.673 4.422 1.347 7.572 2.081 4.119.98 7.511 2.02 9.994 3 2.544.98 4.664 2.572 6.481 4.592 1.817 2.082 2.726 4.837 2.726 8.388 0 2.939-.787 5.571-2.362 8.02-1.575 2.388-3.937 4.347-7.148 5.755-3.21 1.409-7.147 2.082-11.811 2.082-4.18 0-8.177-.673-12.054-1.96ZM321.999 49.47v6.918h-40.038V.612h38.887v6.919h-31.013v17.142h27.621v6.797h-27.621v18h32.164Z" fill="#fff"/></svg>