<svg width="129" height="31" fill="none" xmlns="http://www.w3.org/2000/svg"><g clip-path="url(#a)"><path d="M15.706 8.948h-4.287c-.252-1.631-1.464-2.619-3.443-2.619-1.939 0-3.01.78-3.01 1.907 0 1.4 1.436 1.883 5.065 2.64 4.288.897 5.742 3.033 5.742 5.835 0 3.584-3.351 5.766-7.502 5.766-4.585 0-7.936-2.503-8.119-6.5h4.265c.225 1.791 1.779 2.985 4.15 2.985 1.688 0 2.942-.849 2.942-2.067 0-1.492-1.255-2.09-4.561-2.71C2.912 13.427.722 11.75.722 8.235c0-3.377 3.33-5.398 7.526-5.398 4.151 0 7.253 2.55 7.458 6.11ZM29.41 18.258h-7.205l-1.3 3.629h-4.288l7.206-18.722h4.31l7.204 18.722H30.71l-1.3-3.63Zm-1.277-3.63-2.326-6.525-2.326 6.525h4.652ZM36.996 3.165h13.82v3.629h-9.669v3.812h8.875v3.63h-8.875v4.02h9.873v3.628H36.996V3.164ZM64.995 21.877l-3.602-5.903h-3.306v5.903h-4.15V3.155h7.48c4.721 0 7.48 2.527 7.48 6.41 0 2.572-1.209 4.548-3.397 5.582l4.31 6.73h-4.815Zm-6.91-9.602h3.152c2.189 0 3.512-.942 3.512-2.71s-1.33-2.712-3.514-2.712h-3.152l.002 5.422ZM83.43 18.258h-7.206l-1.3 3.629h-4.287l7.205-18.722h4.31l7.205 18.722H84.73l-1.3-3.63Zm-1.277-3.63-2.326-6.525-2.326 6.525h4.652ZM111.473 3.09h3.466l9.281 11.217V3.09h4.151v18.792h-3.466l-9.281-11.601v11.601h-4.151V3.091ZM.152 25.248h3.994v1.054H1.352v1.107h2.563v1.054H1.352v1.168h2.853v1.06H.152v-5.443ZM5.105 25.202H6.1L8.757 28.5v-3.365h1.19v5.483h-.994l-2.658-3.296v3.37h-1.19v-5.489ZM15.237 26.322h-1.718v4.369h-1.174v-4.369H10.62v-1.074h4.616v1.074ZM15.914 25.248h4.103v1.054h-2.87v1.107h2.634v1.054h-2.635v1.168h2.934v1.06h-4.166v-5.443ZM24.084 30.691l-1.048-1.711h-.962v1.711h-1.207v-5.443h2.176c1.373 0 2.175.733 2.175 1.861 0 .747-.352 1.321-.988 1.621l1.253 1.961h-1.4Zm-2.01-2.795h.915c.637 0 1.022-.274 1.022-.787s-.385-.787-1.022-.787h-.915v1.574ZM30.322 26.322h-1.76v4.369h-1.208v-4.369h-1.76v-1.074h4.728v1.074ZM33.531 29.63H31.41l-.384 1.061h-1.263l2.122-5.443h1.27l2.124 5.443h-1.363l-.384-1.06Zm-.377-1.056-.681-1.897-.682 1.897h1.363ZM37.078 25.248v5.443H35.84v-5.443h1.238ZM37.98 25.202h.993L41.63 28.5v-3.365h1.193v5.483h-.993l-2.66-3.296v3.37H37.98v-5.489ZM43.719 25.248h.973l1.898 3.047 1.893-3.042h.978v5.438h-1.227v-2.989l-1.274 2.089h-.74l-1.274-2.089v2.989h-1.227v-5.443ZM50.363 25.248h4.105v1.054h-2.872v1.107h2.634v1.054h-2.634v1.168h2.933v1.06h-4.166v-5.443ZM55.32 25.202h1.019l2.716 3.297v-3.365h1.219v5.483h-1.019l-2.722-3.296v3.37H55.32v-5.489ZM65.561 26.322h-1.72v4.369h-1.178v-4.369h-1.718v-1.074h4.616v1.074ZM70.278 30.685l-.224-.258a2.621 2.621 0 0 1-1.35.378c-1.26 0-2.016-.65-2.016-1.568 0-.735.463-1.205 1.091-1.535-.277-.364-.469-.729-.469-1.158 0-.834.735-1.41 1.702-1.41.968 0 1.649.55 1.649 1.33 0 .735-.517 1.185-1.178 1.529l.695.82c.114-.243.192-.502.232-.767h1.06a3.301 3.301 0 0 1-.59 1.6l.874 1.039h-1.476Zm-.841-1.006-1.008-1.197c-.344.185-.55.384-.55.695 0 .39.345.678.908.678.228-.001.452-.062.65-.176Zm-.953-3.167c0 .265.158.476.377.74.391-.178.672-.396.672-.733a.512.512 0 0 0-.302-.502.498.498 0 0 0-.2-.041.518.518 0 0 0-.507.325.535.535 0 0 0-.04.21v.001ZM77.61 26.322h-1.8v4.369H74.57v-4.369h-1.802v-1.074h4.842v1.074ZM78.172 25.248h4.105v1.054h-2.872v1.107h2.634v1.054h-2.634v1.168h2.932v1.06h-4.165v-5.443ZM82.79 27.963c0-1.634 1.225-2.829 2.886-2.829 1.483 0 2.476.894 2.695 2.037h-1.219c-.125-.517-.671-.927-1.455-.927a1.7 1.7 0 0 0-1.18.522 1.738 1.738 0 0 0 0 2.412 1.7 1.7 0 0 0 1.18.521c.775 0 1.41-.51 1.503-1h1.218c-.166 1.086-1.251 2.105-2.748 2.105-1.66-.007-2.88-1.206-2.88-2.84ZM93.823 25.248v5.443h-1.161v-2.214h-2.295v2.214h-1.16v-5.443h1.16v2.154h2.295v-2.154h1.16ZM94.832 25.202h1.019l2.717 3.297v-3.365h1.218v5.483h-1.02l-2.724-3.296v3.37h-1.21v-5.489ZM100.461 27.97c0-1.638 1.245-2.836 2.927-2.836s2.927 1.201 2.927 2.835c0 1.635-1.245 2.835-2.927 2.835s-2.927-1.196-2.927-2.835Zm4.647 0c0-1.021-.733-1.752-1.718-1.752s-1.712.73-1.712 1.751.733 1.751 1.718 1.751 1.712-.739 1.712-1.75ZM108.288 25.248v4.363h2.645v1.08h-3.828v-5.443h1.183ZM111.27 27.97c0-1.638 1.221-2.836 2.87-2.836 1.65 0 2.871 1.201 2.871 2.835 0 1.635-1.221 2.835-2.871 2.835-1.649 0-2.87-1.196-2.87-2.835Zm4.559 0c0-1.021-.719-1.752-1.685-1.752-.966 0-1.685.73-1.685 1.751s.717 1.751 1.685 1.751c.967 0 1.685-.739 1.685-1.75ZM123.083 26.942h-1.323c-.224-.398-.734-.703-1.389-.703a1.638 1.638 0 0 0-1.223.49 1.677 1.677 0 0 0-.484 1.24c0 1.015.728 1.751 1.707 1.751.84 0 1.422-.517 1.548-1.047h-1.648v-1.021h2.932v.317c0 1.64-1.231 2.835-2.859 2.835-1.66 0-2.883-1.2-2.883-2.835 0-1.634 1.223-2.835 2.883-2.835 1.409 0 2.428.795 2.739 1.808ZM126.35 28.979v1.712h-1.221v-1.712l-2.035-3.731h1.39l1.311 2.57 1.305-2.57h1.285l-2.035 3.73Z" fill="#1E1E1E"/><path d="M99.398 21.89a9.998 9.998 0 0 1-5.8-1.857 10.114 10.114 0 0 1-3.671-4.889 10.191 10.191 0 0 1-.197-6.127 10.127 10.127 0 0 1 3.951-5.571 1.809 1.809 0 0 1 2.496.487 1.844 1.844 0 0 1-.424 2.525 6.46 6.46 0 0 0-2.522 3.553 6.5 6.5 0 0 0 .125 3.91 6.45 6.45 0 0 0 2.342 3.12 6.378 6.378 0 0 0 3.7 1.184h.062a6.376 6.376 0 0 0 3.605-1.16 6.45 6.45 0 0 0 2.328-3.006 6.495 6.495 0 0 0-1.695-7.082 6.59 6.59 0 0 0-.664-.53 1.834 1.834 0 0 1-.734-1.174c-.082-.474.024-.96.294-1.356a1.811 1.811 0 0 1 2.506-.485 10.119 10.119 0 0 1 3.788 5.004c.702 2.031.745 4.235.12 6.292a10.127 10.127 0 0 1-3.594 5.148 10.003 10.003 0 0 1-5.92 2.013l-.096.001Z" fill="#C55DF6"/><path d="M99.393.866h-.034c-.927 0-1.68.757-1.68 1.692v3.019c0 .934.753 1.692 1.68 1.692h.034c.928 0 1.68-.758 1.68-1.692v-3.02c0-.934-.752-1.691-1.68-1.691Z" fill="#C55DF6"/></g><defs><clipPath id="a"><path fill="#fff" transform="translate(.152 .866)" d="M0 0h128.792v29.898H0z"/></clipPath></defs></svg>