<svg width="110" height="20" fill="none" xmlns="http://www.w3.org/2000/svg"><g clip-path="url(#a)" fill="#252525"><path d="M11.9 9.8c0 6.3-2.5 9.3-5.9 9.3-3.5 0-6-2.9-6-9.3S2.5.5 6 .5s5.9 2.9 5.9 9.3Zm-2.3 0C9.6 4.7 8 2.6 6 2.6c-2.1 0-3.7 2.1-3.7 7.2S3.9 17 6 17c2-.1 3.6-2.2 3.6-7.2Zm10.7.5h-2.8V20h-2.3V0h2.3v8.1h2.8v2.2ZM22.7 9.8c0-6.3 2.5-9.3 6.1-9.3 3.5 0 6 2.9 6 9.3s-2.5 9.3-6 9.3c-3.6 0-6.1-3-6.1-9.3Zm9.8 0c0-5.1-1.6-7.2-3.7-7.2s-3.7 2.1-3.7 7.2 1.6 7.2 3.7 7.2c2.1-.1 3.7-2.2 3.7-7.2ZM38.2 0h2.3v20h-2.3V0ZM55.8 16.5c1.3-.2 2.4-.5 3.3-1v2.1c-1.3.7-3.7 1.1-6.6 1.1h-7.7v-2.1h2.4V2.8H45V.7h13.2v2.1h-2.3v13.7h-.1Zm-3.2.2h1V2.8h-4.1v13.9h3.1ZM63 0v20h-2.3V0H63ZM85.8 0v20h-2.3v-9.6h-4.3v8.4H68V.6h2.3v6.9h6.5V.6h2.3v7.6h4.3V0h2.4Zm-9 16.7V9.6h-6.5v7.1h6.5ZM109.398 16.9V19h-20v-2.2h20v.1Zm-19.6-4.3v-2.2c4.3 0 8.3-4.7 9.3-10.3l2.4.4c-.3 1.5-.7 3-1.4 4.4l8.8 5.9-1.3 1.8-8.5-5.9c-2.2 3.6-5.6 5.9-9.3 5.9Z"/></g><defs><clipPath id="a"><path fill="#fff" d="M0 0h109.4v20H0z"/></clipPath></defs></svg>